<svg width="328" height="140" viewBox="0 0 328 140" fill="none" xmlns="http://www.w3.org/2000/svg">
<path d="M269.258 51.0554C269.131 50.9815 268.975 50.9815 268.848 51.0554L233.849 71.1813C233.574 71.3371 233.574 71.7308 233.849 71.8907L268.852 92.3447C268.979 92.4185 269.139 92.4185 269.266 92.3447L304.376 72.0547C304.651 71.8948 304.651 71.5011 304.376 71.3453L269.262 51.0513L269.258 51.0554Z" fill="black" stroke="white" stroke-width="0.75" stroke-linejoin="round"/>
<path d="M269.22 101.005L304.674 80.0508L311.855 84.258L276.413 105.208L269.22 101.009V101.005Z" stroke="white" stroke-width="0.75" stroke-linejoin="round"/>
<path d="M276.4 113.564L311.715 92.6836L318.891 96.8909L283.593 117.763L276.4 113.564V113.564Z" stroke="white" stroke-width="0.75" stroke-linejoin="round"/>
<path d="M269.123 92.8654L269.221 101.005L304.675 80.0222V71.8906L269.123 92.8695V92.8654Z" fill="black" stroke="white" stroke-width="0.75" stroke-linejoin="round"/>
<path d="M276.413 105.202L276.4 113.568L311.875 92.5641V84.207L276.413 105.202Z" fill="black" stroke="white" stroke-width="0.75" stroke-linejoin="round"/>
<path d="M283.588 117.769L283.56 126.134L318.911 105.328L318.932 96.9707L283.588 117.769Z" fill="black" stroke="white" stroke-width="0.75" stroke-linejoin="round"/>
<path d="M233 71.9434V96.8267L283.561 126.133L283.59 117.772L276.401 113.573L276.413 105.212L269.221 101.013L269.122 92.873L233 71.9516V71.9434Z" stroke="white" stroke-width="0.75" stroke-linejoin="round"/>
<path d="M73.091 51.0554C73.2181 50.9815 73.3739 50.9815 73.501 51.0554L108.5 71.1813C108.775 71.3371 108.775 71.7308 108.5 71.8907L59.0794 100.235C58.9523 100.309 58.7924 100.309 58.6653 100.235L23.5557 79.9455C23.281 79.7855 23.281 79.3919 23.5557 79.2361L73.0869 51.0512L73.091 51.0554Z" fill="black" stroke="white" stroke-width="0.75" stroke-linejoin="round"/>
<path d="M58.7114 108.896L23.2573 87.9414L16.0771 92.1487L51.5189 113.099L58.7114 108.9V108.896Z" stroke="white" stroke-width="0.75" stroke-linejoin="round"/>
<path d="M51.5312 121.455L16.2165 100.574L9.04039 104.781L44.3387 125.654L51.5312 121.455V121.455Z" stroke="white" stroke-width="0.75" stroke-linejoin="round"/>
<path d="M58.8091 100.756L58.7106 108.896L23.2565 87.9128V79.7812L58.8091 100.76V100.756Z" fill="black" stroke="white" stroke-width="0.75" stroke-linejoin="round"/>
<path d="M51.5189 113.093L51.5312 121.458L16.0566 100.455V92.0977L51.5189 113.093Z" fill="black" stroke="white" stroke-width="0.75" stroke-linejoin="round"/>
<path d="M44.3434 125.66L44.3721 134.025L9.02046 113.218L8.99997 104.861L44.3434 125.66Z" fill="black" stroke="white" stroke-width="0.75" stroke-linejoin="round"/>
<path d="M109 71.5078V96.3912L44.3707 134.025L44.342 125.664L51.5305 121.465L51.5182 113.103L58.7107 108.904L58.8091 100.765L94.9316 79.8431L109 71.5078Z" stroke="white" stroke-width="0.75" stroke-linejoin="round"/>
<path d="M265.053 38.4941L256.588 48.0752L265.053 53.0244L273.549 48.1134L265.053 38.4941Z" fill="black" stroke="white" stroke-width="0.75" stroke-linejoin="round"/>
<path d="M256.588 48.0761V65.7325L265.069 70.5746L265.054 53.0214L256.588 48.0723V48.0761Z" fill="black" stroke="white" stroke-width="0.75" stroke-linejoin="round"/>
<path d="M273.548 48.1133L265.052 53.0242L265.067 70.5774L273.548 65.7353V48.1171V48.1133Z" fill="black" stroke="white" stroke-width="0.75" stroke-linejoin="round"/>
<path d="M265.029 22.2305L251 30.2982L265.029 38.4958L279.101 30.3631L265.029 22.2305Z" fill="black" stroke="white" stroke-width="0.75" stroke-linejoin="round"/>
<path d="M251 30.2969V48.0985L265.049 56.1203L265.03 38.4945L251 30.2969Z" fill="black" stroke="white" stroke-width="0.75" stroke-linejoin="round"/>
<path d="M279.102 30.3613L265.03 38.494L265.049 56.1198L279.102 48.098V30.3652V30.3613Z" fill="black" stroke="white" stroke-width="0.75" stroke-linejoin="round"/>
<path d="M265.054 8L256.588 12.8689L265.054 17.818L273.549 12.9071L265.054 8Z" fill="black" stroke="white" stroke-width="0.75" stroke-linejoin="round"/>
<path d="M256.588 12.873V30.5294L265.069 35.3715L265.053 17.8183L256.588 12.8691V12.873Z" fill="black" stroke="white" stroke-width="0.75" stroke-linejoin="round"/>
<path d="M273.548 12.9102L265.052 17.8211L265.068 35.3743L273.548 30.5322V12.914V12.9102Z" fill="black" stroke="white" stroke-width="0.75" stroke-linejoin="round"/>
<path d="M66.0535 40.4941L57.5883 50.0752L66.0535 55.0244L74.5492 50.1134L66.0535 40.4941Z" fill="black" stroke="white" stroke-width="0.75" stroke-linejoin="round"/>
<path d="M57.5884 50.0761V67.7325L66.0688 72.5746L66.0535 55.0214L57.5884 50.0723V50.0761Z" fill="black" stroke="white" stroke-width="0.75" stroke-linejoin="round"/>
<path d="M74.5479 50.1133L66.0522 55.0242L66.0675 72.5774L74.5479 67.7353V50.1171V50.1133Z" fill="black" stroke="white" stroke-width="0.75" stroke-linejoin="round"/>
<path d="M66.0293 24.2305L51.9997 32.2982L66.0293 40.4958L80.1009 32.3631L66.0293 24.2305Z" fill="black" stroke="white" stroke-width="0.75" stroke-linejoin="round"/>
<path d="M52 32.2969V50.0985L66.0487 58.1203L66.0296 40.4945L52 32.2969Z" fill="black" stroke="white" stroke-width="0.75" stroke-linejoin="round"/>
<path d="M80.1019 32.3613L66.0302 40.494L66.0493 58.1198L80.1019 50.098V32.3652V32.3613Z" fill="black" stroke="white" stroke-width="0.75" stroke-linejoin="round"/>
<path d="M178.286 47.0554C178.159 46.9815 178.003 46.9815 177.876 47.0554L142.873 67.1813C142.598 67.3371 142.598 67.7308 142.873 67.8907L177.876 88.3447C178.003 88.4185 178.159 88.4185 178.29 88.3447L213.4 68.0547C213.674 67.8948 213.674 67.5011 213.4 67.3453L178.29 47.0513L178.286 47.0554Z" fill="black" stroke="white" stroke-width="0.75" stroke-linejoin="round"/>
<path d="M177.716 100.685L142.262 79.7266L135.082 83.9338L170.524 104.884L177.716 100.685Z" fill="black" stroke="white" stroke-width="0.75" stroke-linejoin="round"/>
<path d="M170.535 113.248L135.22 92.3672L128.04 96.5744L163.343 117.447L170.535 113.248Z" fill="black" stroke="white" stroke-width="0.75" stroke-linejoin="round"/>
<path d="M142.263 71.5703V79.7019L177.717 100.685L177.815 92.5451V92.5492" stroke="white" stroke-width="0.75" stroke-linejoin="round"/>
<path d="M170.524 104.886L170.536 113.247L135.061 92.2438V83.8867L170.524 104.882V104.886Z" fill="black" stroke="white" stroke-width="0.75" stroke-linejoin="round"/>
<path d="M163.343 117.449L163.376 125.81L128.02 105.007L128 96.6504L163.343 117.449Z" fill="black" stroke="white" stroke-width="0.75" stroke-linejoin="round"/>
<path d="M213.938 68V96.6736L163.381 125.814L163.348 117.453L170.541 113.253L170.529 104.888L177.721 100.689L177.82 87.9256" stroke="white" stroke-width="0.75" stroke-linejoin="round"/>
<path d="M179.012 41.252L171.174 50.1234L179.012 54.7059L186.879 50.1588L179.012 41.252Z" fill="black" stroke="white" stroke-width="0.75" stroke-linejoin="round"/>
<path d="M171.174 50.1246V66.4732L179.026 70.9567L179.012 54.7037L171.174 50.1211V50.1246Z" fill="black" stroke="white" stroke-width="0.75" stroke-linejoin="round"/>
<path d="M186.878 50.1582L179.011 54.7054L179.026 70.9584L186.878 66.4749V50.1617V50.1582Z" fill="black" stroke="white" stroke-width="0.75" stroke-linejoin="round"/>
<path d="M166 13.7578V50.1444L179.008 57.5721L178.99 21.3482L166 13.7578Z" fill="black"/>
<path d="M166 13.7578V50.1444L179.008 57.5721L178.99 21.3482L166 13.7578Z" stroke="black" stroke-width="0.75" stroke-linejoin="round"/>
<path d="M166 13.7578V50.1444L179.008 57.5721L178.99 21.3482L166 13.7578Z" stroke="#BCFF2F" stroke-width="0.75" stroke-linejoin="round"/>
<path d="M192.021 13.8926L178.991 21.4228L179.009 57.5705L192.021 50.1429V33.7235V13.8926Z" fill="black"/>
<path d="M192.021 13.8926L178.991 21.4228L179.009 57.5705L192.021 50.1429V33.7235V13.8926Z" stroke="black" stroke-width="0.75" stroke-linejoin="round"/>
<path d="M192.021 13.8926L178.991 21.4228L179.009 57.5705L192.021 50.1429V33.7235V13.8926Z" stroke="#BCFF2F" stroke-width="0.75" stroke-linejoin="round"/>
<path d="M178.99 6L166 13.4701L178.99 21.0605L192.02 13.5303L178.99 6Z" fill="black"/>
<path d="M178.99 6L166 13.4701L178.99 21.0605L192.02 13.5303L178.99 6Z" stroke="black" stroke-width="0.75" stroke-linejoin="round"/>
<path d="M178.99 6L166 13.4701L178.99 21.0605L192.02 13.5303L178.99 6Z" stroke="#BCFF2F" stroke-width="0.75" stroke-linejoin="round"/>
</svg>
