<svg width="328" height="328" viewBox="0 0 328 328" fill="none" xmlns="http://www.w3.org/2000/svg">
<g clip-path="url(#clip0_55_10650)">
<rect x="2.33203" y="42.7798" width="311.25" height="202.612" rx="7.625" stroke="white" stroke-width="0.75"/>
<path d="M1.95703 232.1L280.562 232.1" stroke="white" stroke-width="0.75"/>
<rect x="288.607" y="49.2139" width="17.55" height="5.32614" rx="1" fill="#383838"/>
<rect x="288.607" y="74.7903" width="17.55" height="5.32614" rx="1" fill="#383838"/>
<rect x="288.607" y="100.367" width="17.55" height="5.32614" rx="1" fill="#383838"/>
<rect x="288.607" y="125.943" width="17.55" height="5.32614" rx="1" fill="#383838"/>
<rect x="288.607" y="151.52" width="17.55" height="5.32614" rx="1" fill="#383838"/>
<rect x="288.607" y="177.096" width="17.55" height="5.32614" rx="1" fill="#383838"/>
<rect x="288.607" y="202.673" width="17.55" height="5.32614" rx="1" fill="#383838"/>
<rect x="288.607" y="228.25" width="17.55" height="5.32614" rx="1" fill="#383838"/>
<rect x="288.607" y="160.176" width="17.55" height="4.43845" rx="1" fill="#383838"/>
<rect x="9.54962" y="219.172" width="16.0502" height="7.54143" rx="1" fill="#383838"/>
<rect x="71.4579" y="219.172" width="16.0502" height="7.54143" rx="1" fill="#383838"/>
<rect x="133.366" y="219.172" width="16.0502" height="7.54143" rx="1" fill="#383838"/>
<rect x="195.274" y="219.172" width="16.0502" height="7.54143" rx="1" fill="#383838"/>
<rect x="257.18" y="219.172" width="16.0502" height="7.54143" rx="1" fill="#383838"/>
<path d="M280.562 43L280.563 245.447" stroke="white" stroke-width="0.75"/>
<path d="M1.95703 213.859H280.562" stroke="white" stroke-width="0.75"/>
<path d="M258.939 148.493C255.481 148.493 253.099 147.462 250.853 144.292C248.377 140.789 245.81 137.161 240.697 137.161C235.584 137.161 233.028 140.789 230.541 144.292C228.165 147.652 225.919 150.823 221.378 150.823C217.067 150.823 214.711 140.789 212.425 131.103C209.959 120.644 207.412 109.838 202.069 109.838C196.725 109.838 194.259 122.853 191.702 136.625C189.406 148.977 187.03 161.739 182.76 161.739C178.489 161.739 178.303 137.54 176.649 117.036C173.883 82.7477 171.551 60.8997 166.087 60.8997C160.623 60.8997 158.297 66.9101 155.811 72.7312C153.445 78.2842 148.562 93.4315 144.131 93.4315C138.928 93.4315 136.361 98.8267 133.885 104.048C131.519 109.033 129.283 113.735 124.822 113.735C119.589 113.735 117.022 120.06 114.546 126.181C112.18 132.034 109.934 137.54 105.513 137.54C101.092 137.54 98.8559 132.113 96.4799 126.371C93.9935 120.344 91.427 114.129 86.1937 114.129C80.9604 114.129 78.454 136.467 75.8072 162.339C73.7019 182.941 71.0852 208.576 66.8845 208.576C62.6838 208.576 60.0672 181.522 57.9618 159.799C55.3151 132.57 53.0393 109.049 47.5754 109.049C42.1115 109.049 39.6853 120.06 37.219 130.709C34.9332 140.6 32.5671 150.823 28.2662 150.823C23.9652 150.823 21.5992 145.396 19.2332 139.638C16.7469 133.627 14.1904 127.396 8.95703 127.396" stroke="#BCFF2F" stroke-width="2" stroke-miterlimit="10"/>
<rect x="253.016" y="136.079" width="71.291" height="27.3758" rx="1.625" fill="black" stroke="white" stroke-width="0.75"/>
<path fill-rule="evenodd" clip-rule="evenodd" d="M273.093 155.75C271.065 155.569 269.29 154.75 268.384 153.488L270.123 151.931C270.902 152.98 271.862 153.57 273.093 153.766V150.521C271.101 150.177 269.036 149.636 269.036 147.309C269.036 145.325 270.793 144.031 273.093 143.768V142.195H274.923V143.768C276.734 143.965 278.201 144.719 278.962 145.768L277.295 147.341C276.716 146.522 275.901 145.948 274.923 145.719V148.751C276.915 149.095 279.034 149.636 279.034 152.045C279.034 154.094 277.259 155.422 274.923 155.717V157.339H273.093V155.75ZM273.093 145.67C272.097 145.833 271.409 146.325 271.409 147.128C271.409 147.882 272.115 148.21 273.093 148.423V145.67ZM274.923 153.766C275.955 153.602 276.661 153.144 276.661 152.226C276.661 151.423 275.937 151.078 274.923 150.849V153.766ZM288.046 155.75C286.018 155.569 284.243 154.75 283.337 153.488L285.076 151.931C285.855 152.98 286.815 153.57 288.046 153.766V150.521C286.054 150.177 283.989 149.636 283.989 147.309C283.989 145.325 285.746 144.031 288.046 143.768V142.195H289.875V143.768C291.687 143.965 293.154 144.719 293.914 145.768L292.248 147.341C291.669 146.522 290.854 145.948 289.875 145.719V148.751C291.868 149.095 293.987 149.636 293.987 152.045C293.987 154.094 292.212 155.422 289.875 155.717V157.339H288.046V155.75ZM288.046 145.67C287.05 145.833 286.362 146.325 286.362 147.128C286.362 147.882 287.068 148.21 288.046 148.423V145.67ZM289.875 153.766C290.908 153.602 291.614 153.144 291.614 152.226C291.614 151.423 290.89 151.078 289.875 150.849V153.766ZM298.29 153.488C299.196 154.75 300.971 155.569 302.999 155.75V157.339H304.828V155.717C307.165 155.422 308.94 154.094 308.94 152.045C308.94 149.636 306.821 149.095 304.828 148.751V145.719C305.806 145.948 306.621 146.522 307.201 147.341L308.867 145.768C308.107 144.719 306.64 143.965 304.828 143.768V142.195H302.999V143.768C300.699 144.031 298.942 145.325 298.942 147.309C298.942 149.636 301.007 150.177 302.999 150.521V153.766C301.767 153.57 300.808 152.98 300.029 151.931L298.29 153.488ZM301.315 147.128C301.315 146.325 302.003 145.833 302.999 145.67V148.423C302.021 148.21 301.315 147.882 301.315 147.128ZM306.567 152.226C306.567 153.144 305.861 153.602 304.828 153.766V150.849C305.843 151.078 306.567 151.423 306.567 152.226Z" fill="white"/>
<path d="M37.7728 65.2929C37.7728 71.6727 32.6049 76.8439 26.2307 76.8439C19.8566 76.8439 14.6886 71.6727 14.6886 65.2929C14.6886 58.9131 19.8566 53.7419 26.2307 53.7419C32.6049 53.7419 37.7728 58.9131 37.7728 65.2929Z" stroke="white" stroke-linecap="round"/>
<path d="M25.752 61.4929H26.9237V60.2581H25.752V61.4929ZM26.8324 62.9776H25.8281V70.2203H26.8324V62.9776Z" fill="white"/>
</g>
<defs>
<clipPath id="clip0_55_10650">
<rect width="328" height="328" fill="white"/>
</clipPath>
</defs>
</svg>
