<svg xmlns="http://www.w3.org/2000/svg" xmlns:xlink="http://www.w3.org/1999/xlink" id="Layer_1" x="0px" y="0px" viewBox="0 0 400 118.5" style="enable-background:new 0 0 400 118.5;" xml:space="preserve"><style type="text/css">	.st0{fill:#FFFFFF;}	.st1{fill:#A6A6A6;}	.st2{fill:url(#SVGID_1_);}</style><g transform="scale(4.00216 4.0011)">	<path class="st0" d="M99.3,26.1c0,1.6-1.3,2.8-2.8,2.8c0,0,0,0,0,0H3.5c-1.6,0-2.8-1.3-2.8-2.8V3.5c0-1.6,1.3-2.8,2.8-2.8h92.9   c1.6,0,2.8,1.3,2.8,2.8c0,0,0,0,0,0L99.3,26.1L99.3,26.1z"></path>	<path class="st1" d="M96.5,29.6H3.5c-1.9,0-3.5-1.6-3.5-3.5V3.5C0,1.6,1.6,0,3.5,0h92.9c1.9,0,3.5,1.6,3.5,3.5v22.6   C100,28.1,98.4,29.6,96.5,29.6L96.5,29.6z"></path>	<path d="M99.3,26.1c0,1.6-1.3,2.8-2.8,2.8c0,0,0,0,0,0H3.5c-1.6,0-2.8-1.3-2.8-2.8V3.5c0-1.6,1.3-2.8,2.8-2.8h92.9   c1.6,0,2.8,1.3,2.8,2.8c0,0,0,0,0,0L99.3,26.1L99.3,26.1z"></path>	<path class="st0" d="M22.3,14.7c0-2.4,2-3.5,2-3.6c-1.1-1.6-2.9-1.9-3.5-1.9c-1.5-0.2-2.9,0.9-3.6,0.9c-0.8,0-1.9-0.9-3.1-0.8   c-1.6,0-3.1,0.9-3.9,2.4c-1.7,2.9-0.4,7.2,1.2,9.5c0.8,1.2,1.7,2.4,3,2.4c1.2,0,1.7-0.8,3.1-0.8c1.4,0,1.9,0.8,3.1,0.7   c1.3,0,2.1-1.2,2.9-2.3c0.9-1.3,1.3-2.6,1.3-2.7C24.8,18.5,22.4,17.5,22.3,14.7L22.3,14.7z M20,7.6c0.6-0.8,1.1-1.9,1-3   c-0.9,0-2.1,0.6-2.8,1.4c-0.6,0.7-1.1,1.8-1,2.9C18.2,9,19.3,8.4,20,7.6z"></path>			<linearGradient id="SVGID_1_" gradientUnits="userSpaceOnUse" x1="29.8784" y1="2.1479" x2="29.8784" y2="20.1657" gradientTransform="matrix(23.7359 0 0 -23.7231 -635.8599 80.6567)">		<stop offset="0" style="stop-color:#1A1A1A;stop-opacity:0.1"></stop>		<stop offset="0.123" style="stop-color:#212121;stop-opacity:0.151"></stop>		<stop offset="0.308" style="stop-color:#353535;stop-opacity:0.227"></stop>		<stop offset="0.532" style="stop-color:#575757;stop-opacity:0.318"></stop>		<stop offset="0.783" style="stop-color:#858585;stop-opacity:0.421"></stop>		<stop offset="1" style="stop-color:#B3B3B3;stop-opacity:0.51"></stop>	</linearGradient>	<path class="st2" d="M96.5,0H46.7l19.5,29.6h30.3c1.9,0,3.5-1.6,3.5-3.5V3.5C100,1.6,98.4,0,96.5,0z"></path>	<g>		<path class="st0" d="M39.8,23.3h-1.7l-0.9-2.9H34l-0.9,2.9h-1.6l3.2-9.9h2L39.8,23.3L39.8,23.3z M36.9,19.2l-0.8-2.6    c-0.1-0.3-0.3-0.9-0.5-1.9h0c-0.1,0.4-0.3,1-0.5,1.9l-0.8,2.6H36.9z M47.9,19.7c0,1.2-0.3,2.2-1,2.9c-0.6,0.6-1.3,0.9-2.2,0.9    c-0.9,0-1.6-0.3-2-1v3.7h-1.6v-7.7c0-0.8,0-1.5-0.1-2.3h1.4l0.1,1.1h0c0.5-0.8,1.3-1.3,2.4-1.3c0.8,0,1.5,0.3,2.1,1    C47.6,17.7,47.9,18.6,47.9,19.7L47.9,19.7z M46.3,19.8c0-0.7-0.2-1.3-0.5-1.7c-0.3-0.5-0.8-0.7-1.4-0.7c-0.4,0-0.7,0.1-1.1,0.4    c-0.3,0.3-0.5,0.6-0.6,1c0,0.2-0.1,0.3-0.1,0.5v1.2c0,0.5,0.2,1,0.5,1.3c0.3,0.4,0.7,0.5,1.2,0.5c0.6,0,1.1-0.2,1.4-0.7    C46.2,21.1,46.3,20.5,46.3,19.8z M56.1,19.7c0,1.2-0.3,2.2-1,2.9c-0.6,0.6-1.3,0.9-2.2,0.9c-0.9,0-1.6-0.3-2-1v3.7h-1.6v-7.7    c0-0.8,0-1.5-0.1-2.3h1.4l0.1,1.1h0c0.5-0.8,1.3-1.3,2.4-1.3c0.8,0,1.5,0.3,2.1,1C55.8,17.7,56.1,18.6,56.1,19.7L56.1,19.7z     M54.5,19.8c0-0.7-0.2-1.3-0.5-1.7c-0.3-0.5-0.8-0.7-1.4-0.7c-0.4,0-0.7,0.1-1.1,0.4c-0.3,0.3-0.5,0.6-0.6,1    c0,0.2-0.1,0.4-0.1,0.5v1.2c0,0.5,0.2,1,0.5,1.3c0.3,0.4,0.7,0.5,1.2,0.5c0.6,0,1.1-0.2,1.4-0.7C54.3,21.1,54.5,20.5,54.5,19.8z     M65.2,20.6c0,0.8-0.3,1.5-0.9,2c-0.6,0.6-1.5,0.9-2.7,0.9c-1.1,0-1.9-0.2-2.6-0.6l0.4-1.3c0.7,0.4,1.5,0.6,2.3,0.6    c0.6,0,1.1-0.1,1.4-0.4c0.3-0.3,0.5-0.6,0.5-1.1c0-0.4-0.1-0.7-0.4-1c-0.3-0.3-0.7-0.5-1.4-0.8c-1.7-0.6-2.6-1.6-2.6-2.8    c0-0.8,0.3-1.5,0.9-2c0.6-0.5,1.4-0.8,2.4-0.8c0.9,0,1.6,0.2,2.2,0.5l-0.4,1.3c-0.6-0.3-1.2-0.5-1.9-0.5c-0.6,0-1,0.1-1.3,0.4    c-0.3,0.2-0.4,0.5-0.4,0.9c0,0.4,0.2,0.7,0.5,1c0.3,0.2,0.7,0.5,1.4,0.8c0.8,0.3,1.5,0.7,1.9,1.2C65,19.3,65.2,19.9,65.2,20.6    L65.2,20.6z M70.5,17.4h-1.7v3.5c0,0.9,0.3,1.3,0.9,1.3c0.3,0,0.5,0,0.7-0.1l0,1.2c-0.3,0.1-0.7,0.2-1.2,0.2    c-0.6,0-1.1-0.2-1.5-0.6c-0.4-0.4-0.5-1-0.5-1.9v-3.6h-1v-1.2h1v-1.3l1.6-0.5v1.8h1.7L70.5,17.4L70.5,17.4z M78.3,19.7    c0,1.1-0.3,2-0.9,2.7c-0.7,0.7-1.5,1.1-2.6,1.1c-1,0-1.9-0.3-2.5-1c-0.6-0.7-0.9-1.6-0.9-2.6c0-1.1,0.3-2,1-2.7    c0.6-0.7,1.5-1.1,2.6-1.1c1,0,1.9,0.3,2.5,1C78,17.8,78.3,18.7,78.3,19.7L78.3,19.7z M76.7,19.8c0-0.7-0.1-1.2-0.4-1.7    c-0.3-0.6-0.8-0.8-1.4-0.8c-0.6,0-1.1,0.3-1.4,0.8c-0.3,0.5-0.4,1-0.4,1.7c0,0.7,0.1,1.2,0.4,1.7c0.3,0.6,0.8,0.8,1.4,0.8    c0.6,0,1.1-0.3,1.4-0.9C76.5,21,76.7,20.4,76.7,19.8L76.7,19.8z M83.5,17.6c-0.2,0-0.3,0-0.5,0c-0.6,0-1,0.2-1.3,0.6    c-0.3,0.4-0.4,0.8-0.4,1.4v3.7h-1.6v-4.9c0-0.7,0-1.5,0-2.2H81l0.1,1.4h0c0.2-0.5,0.4-0.8,0.8-1.1c0.3-0.2,0.7-0.4,1.1-0.4    c0.1,0,0.3,0,0.4,0L83.5,17.6L83.5,17.6z M90.5,19.4c0,0.2,0,0.5-0.1,0.7h-4.7c0,0.7,0.2,1.2,0.7,1.6c0.4,0.3,0.9,0.5,1.5,0.5    c0.7,0,1.3-0.1,1.9-0.3l0.2,1.1c-0.7,0.3-1.5,0.4-2.4,0.4c-1.1,0-2-0.3-2.6-1c-0.6-0.6-0.9-1.5-0.9-2.6c0-1.1,0.3-2,0.9-2.7    c0.6-0.8,1.4-1.1,2.5-1.1c1,0,1.8,0.4,2.3,1.1C90.3,17.8,90.5,18.6,90.5,19.4L90.5,19.4z M89,19c0-0.5-0.1-0.9-0.3-1.2    c-0.3-0.4-0.7-0.7-1.3-0.7c-0.5,0-0.9,0.2-1.3,0.6c-0.3,0.3-0.4,0.8-0.5,1.2L89,19L89,19z"></path>	</g>	<g>		<path class="st0" d="M33.5,10c-0.4,0-0.8,0-1.1-0.1V5.2c0.4-0.1,0.9-0.1,1.3-0.1c1.8,0,2.6,0.9,2.6,2.3C36.4,9.1,35.4,10,33.5,10z     M33.8,5.7c-0.2,0-0.5,0-0.6,0.1v3.6c0.1,0,0.3,0,0.5,0c1.2,0,1.9-0.7,1.9-1.9C35.5,6.3,34.9,5.7,33.8,5.7z M39,10    c-1,0-1.7-0.8-1.7-1.8c0-1.1,0.7-1.8,1.7-1.8c1,0,1.7,0.7,1.7,1.8C40.7,9.3,40,10,39,10z M39,7c-0.6,0-0.9,0.5-0.9,1.3    c0,0.7,0.4,1.2,0.9,1.2c0.5,0,0.9-0.6,0.9-1.3C39.9,7.5,39.5,7,39,7L39,7z M46.5,6.5L45.4,10h-0.7l-0.5-1.5    c-0.1-0.4-0.2-0.7-0.3-1.1h0c-0.1,0.4-0.2,0.8-0.3,1.1L43.2,10h-0.7l-1-3.5h0.8l0.4,1.7c0.1,0.4,0.2,0.8,0.2,1.1h0    c0.1-0.3,0.2-0.7,0.3-1.1l0.5-1.7h0.6l0.5,1.6c0.1,0.4,0.2,0.8,0.3,1.2h0c0.1-0.4,0.1-0.7,0.2-1.2l0.4-1.6L46.5,6.5L46.5,6.5z     M50.5,10h-0.8v-2c0-0.6-0.2-0.9-0.7-0.9c-0.5,0-0.8,0.4-0.8,0.9V10h-0.8V7.5c0-0.3,0-0.6,0-1h0.7l0,0.5h0    c0.2-0.4,0.6-0.6,1.1-0.6c0.7,0,1.2,0.6,1.2,1.5L50.5,10L50.5,10z M52.7,10h-0.8V4.9h0.8V10z M55.5,10c-1,0-1.7-0.8-1.7-1.8    c0-1.1,0.7-1.8,1.7-1.8c1,0,1.7,0.7,1.7,1.8C57.3,9.3,56.6,10,55.5,10z M55.5,7c-0.6,0-0.9,0.5-0.9,1.3c0,0.7,0.4,1.2,0.9,1.2    c0.5,0,0.9-0.6,0.9-1.3C56.5,7.5,56.1,7,55.5,7L55.5,7z M60.3,10l-0.1-0.4h0c-0.2,0.3-0.6,0.5-1,0.5c-0.6,0-1.1-0.4-1.1-1    c0-0.9,0.7-1.3,2-1.3V7.6c0-0.5-0.2-0.7-0.7-0.7c-0.3,0-0.6,0.1-0.9,0.3l-0.2-0.5c0.3-0.2,0.7-0.3,1.2-0.3c0.9,0,1.4,0.5,1.4,1.4    v1.3c0,0.4,0,0.6,0.1,0.8L60.3,10L60.3,10z M60.2,8.2c-0.9,0-1.3,0.2-1.3,0.7c0,0.4,0.2,0.5,0.5,0.5c0.4,0,0.8-0.3,0.8-0.7V8.2z     M64.7,10l0-0.6h0c-0.2,0.4-0.6,0.6-1.1,0.6c-0.8,0-1.5-0.7-1.5-1.8c0-1.1,0.6-1.9,1.5-1.9c0.5,0,0.8,0.2,1,0.5h0v-2h0.8V9    c0,0.3,0,0.7,0,0.9L64.7,10L64.7,10z M64.6,7.9c0-0.5-0.3-0.9-0.8-0.9c-0.6,0-0.9,0.5-0.9,1.2c0,0.7,0.4,1.2,0.9,1.2    c0.5,0,0.8-0.4,0.8-0.9L64.6,7.9L64.6,7.9z M70.3,10c-1,0-1.7-0.8-1.7-1.8c0-1.1,0.7-1.8,1.7-1.8c1,0,1.7,0.7,1.7,1.8    C72.1,9.3,71.4,10,70.3,10L70.3,10z M70.4,7c-0.6,0-0.9,0.5-0.9,1.3c0,0.7,0.4,1.2,0.9,1.2c0.5,0,0.9-0.6,0.9-1.3    C71.3,7.5,70.9,7,70.4,7L70.4,7z M76.2,10h-0.8v-2c0-0.6-0.2-0.9-0.7-0.9C74.3,7,74,7.4,74,7.9V10h-0.8V7.5c0-0.3,0-0.6,0-1h0.7    l0,0.5h0c0.2-0.4,0.6-0.6,1.1-0.6c0.7,0,1.2,0.6,1.2,1.5V10z M81.5,7h-0.9v1.7c0,0.4,0.1,0.6,0.5,0.6c0.1,0,0.3,0,0.3,0l0,0.6    C81.3,10,81.1,10,80.8,10c-0.6,0-1-0.3-1-1.2V7h-0.5V6.5h0.5V5.8l0.8-0.2v0.9h0.9L81.5,7L81.5,7z M85.6,10h-0.8V8    c0-0.6-0.2-0.9-0.7-0.9c-0.4,0-0.8,0.3-0.8,0.8V10h-0.8V4.9h0.8V7h0c0.2-0.4,0.6-0.6,1.1-0.6c0.7,0,1.2,0.6,1.2,1.5L85.6,10    L85.6,10z M89.8,8.4h-2.3c0,0.7,0.5,1,1.1,1c0.3,0,0.7-0.1,0.9-0.2l0.1,0.5c-0.3,0.1-0.7,0.2-1.2,0.2c-1.1,0-1.7-0.7-1.7-1.8    c0-1.1,0.7-1.9,1.7-1.9c0.9,0,1.5,0.7,1.5,1.7C89.8,8.2,89.8,8.3,89.8,8.4L89.8,8.4z M89.1,7.8c0-0.5-0.3-0.9-0.8-0.9    c-0.4,0-0.8,0.4-0.8,0.9H89.1L89.1,7.8z"></path>	</g></g></svg>